<?xml version="1.0" encoding="iso-8859-1"?>
<!-- Generator: Adobe Illustrator 19.0.0, SVG Export Plug-In . SVG Version: 6.00 Build 0)  -->
<svg version="1.1" id="Layer_1" xmlns="http://www.w3.org/2000/svg" xmlns:xlink="http://www.w3.org/1999/xlink" x="0px" y="0px"
	viewBox="0 0 480 480" style="enable-background:new 0 0 480 480;" xml:space="preserve">
	<g>
		<g>
			<path d="M409.705,70.303C364.376,24.977,304.106,0.016,240,0.016S115.625,24.977,70.296,70.303
			C24.965,115.628,0,175.896,0,239.999c0,64.106,24.965,124.372,70.296,169.698c45.329,45.325,105.598,70.287,169.704,70.287
			s124.376-24.962,169.705-70.287C455.035,364.372,480,304.105,480,239.999C480,175.896,455.035,115.628,409.705,70.303z
			 M61.505,368.443c0.246-0.186,0.485-0.384,0.718-0.596l61.576-56.277c5.672,6.234,14.925,15.72,30.025,30.813
			c15.13,15.122,24.628,24.376,30.865,30.043l-53.296,58.827C103.836,415.544,79.988,394.053,61.505,368.443z M220.443,245.293
			c-7.841,0-15.21,3.033-20.785,8.576c-11.517,11.562-11.45,30.366,0.138,41.908c5.659,5.654,13.16,8.768,21.12,8.768
			c7.863,0,15.251-3.052,20.833-8.623c8.994-9.056,10.868-22.582,5.659-33.57l112.495-112.515l-46.746,157.726
			c-0.813,1.169-2.627,3.267-3.61,4.214c-7.656,3.913-68.15,30.366-108.943,48.063c-12.966-11.628-52.526-51.165-64.223-64.182
			c17.922-40.54,44.64-100.531,48.625-108.292c0.99-1.018,3.121-2.86,4.303-3.686l154.186-45.717l-110.21,110.228
			C229.32,246.295,224.957,245.293,220.443,245.293z M227.59,281.797c-1.775,1.772-4.145,2.748-6.674,2.748
			c-2.622,0-5.102-1.036-6.996-2.927c-3.784-3.77-3.825-9.887-0.127-13.601c1.768-1.757,4.129-2.725,6.65-2.725
			c2.622,0.001,5.101,1.035,6.976,2.908C231.267,272.048,231.328,278.034,227.59,281.797z M240,459.985
			c-32.102,0-62.617-6.914-90.142-19.325l55.238-60.971c6.999-3.035,31.481-13.663,55.791-24.307
			c16.819-7.364,30.265-13.296,39.963-17.63c16.948-7.573,20.186-9.021,21.828-10.892c1.735-1.554,3.476-3.545,4.529-4.81
			c3.141-3.77,4.754-6.573,5.28-9.33l54.605-184.243c0.36-1.215,0.485-2.487,0.371-3.749c-0.762-8.354-8.209-15.412-16.263-15.412
			c-0.963,0-1.92,0.139-2.843,0.412l-184.988,54.85l0.003,0.009c-5.232,1.48-10.458,6.51-13.082,9.35
			c-0.413,0.347-0.827,0.787-1.326,1.494c-0.259,0.306-0.402,0.486-0.412,0.5l0.052,0.035c-2.758,4.273-8.212,16.504-27.441,59.628
			c-10.808,24.237-21.604,48.648-24.649,55.537l-66.076,60.392C31.111,318.8,20,280.676,20,239.999
			c0-121.3,98.691-219.984,220-219.984s220,98.685,220,219.984C460,361.3,361.309,459.985,240,459.985z" />
		</g>
	</g>
</svg>