<?xml version="1.0" encoding="iso-8859-1"?>
<!-- Generator: Adobe Illustrator 19.0.0, SVG Export Plug-In . SVG Version: 6.00 Build 0)  -->
<svg version="1.1" id="Capa_1" 
	xmlns="http://www.w3.org/2000/svg" 
	xmlns:xlink="http://www.w3.org/1999/xlink" x="0px" y="0px" viewBox="0 0 480 480" style="enable-background:new 0 0 480 480;" xml:space="preserve">
	<g>
		<g>
			<path d="M404.121,0c-20.266,0-39.324,7.891-53.66,22.227L2.344,370.344C0.844,371.844,0,373.875,0,376v96c0,4.422,3.582,8,8,8h96
			c2.121,0,4.156-0.844,5.656-2.344l348.117-348.117C471.898,115.422,480,95.859,480,75.883C479.996,34.047,445.957,0.008,404.121,0
			z M312,83.313L332.688,104L48,388.688L27.313,368L312,83.313z M344,115.313L364.688,136L80,420.688L59.313,400L344,115.313z
			 M16,464v-12.688L28.688,464H16z M51.313,464L16,428.688v-49.375L100.688,464H51.313z M112,452.688L91.313,432L376,147.313
			L396.688,168L112,452.688z M408,156.688L323.313,72L344,51.313L428.688,136L408,156.688z M446.461,118.227L440,124.688L355.313,40
			l6.461-6.461C373.086,22.227,388.129,16,404.121,16c33.012,0.008,59.875,26.867,59.879,59.883
			C464,91.648,457.605,107.086,446.461,118.227z"/>
		</g>
	</g>
	<g>
		<g>
			<path d="M408,30.055c-11.203,0-21.738,4.367-29.656,12.289l11.313,11.313c9.805-9.797,26.883-9.797,36.688,0l11.313-11.313
			C429.738,34.422,419.203,30.055,408,30.055z"/>
		</g>
	</g>
</svg>
